<svg xmlns="http://www.w3.org/2000/svg" width="22.245" height="23.107" viewBox="0 0 22.245 23.107"><defs><style>.a{fill:#34acbc;}</style></defs><g transform="translate(-723 -690)"><path class="a" d="M27.351,23.5,26.6,24.668l4.254,2.781v1.279L21.123,35.04,11.39,28.728V27.449l4.171-2.725-.751-1.168L10,26.7V42.269H32.245V26.7Zm3.5,16.573-6.729-5.311,6.729-4.393ZM22.9,35.54l6.729,5.339H12.5l6.785-5.367,1.835,1.2Zm-4.838-.834L11.39,39.989V30.368Z" transform="translate(713 670.838)"/><path class="a" d="M41.326,13.461,40.352,11.4A3.61,3.61,0,0,1,41.8,17.66l.918,1.057a5.012,5.012,0,0,0-1.863-8.62l2.03-.945L42.3,7.9,38.1,9.874l1.974,4.171Z" transform="translate(692.714 682.1)"/></g></svg>