<svg xmlns="http://www.w3.org/2000/svg" width="28.693" height="23.57" viewBox="0 0 28.693 23.57"><defs><style>.a{fill:#34acbc;}</style></defs><path class="a" d="M295.078,2237.82a5.015,5.015,0,0,0-3.107,1.085,6.293,6.293,0,1,0-.245,7.695,5.031,5.031,0,1,0,3.352-8.78Zm-8.2,8.9A4.126,4.126,0,1,1,291,2242.59,4.131,4.131,0,0,1,286.874,2246.716Zm8.2-1a2.828,2.828,0,0,1-2.24-1.117,6.151,6.151,0,0,0,.114-3.628,2.852,2.852,0,1,1,2.126,4.745Z" transform="translate(-275.059 -2236.292)"/><path class="a" d="M294.694,2249.869a10.151,10.151,0,0,0-6.068,1.9,14.378,14.378,0,0,0-2.286-.187c-5.732,0-10.555,3.335-11.218,7.758l-.18,1.2h22.8l-.181-1.2a7.21,7.21,0,0,0-.7-2.171h6.781l-.18-1.2C302.933,2252.491,299.167,2249.869,294.694,2249.869Zm-17.049,8.566c1.136-2.773,4.624-4.742,8.695-4.742s7.558,1.969,8.695,4.742Zm21.111-3.376h-3.422a11.089,11.089,0,0,0-3.8-2.486,8.589,8.589,0,0,1,3.155-.594c2.8,0,5.213,1.26,6.172,3.08Z" transform="translate(-274.941 -2236.977)"/></svg>