<svg xmlns="http://www.w3.org/2000/svg" width="13.586" height="13.586" viewBox="0 0 13.586 13.586"><defs><style>.a{fill:#fff;}</style></defs><path class="a" d="M11.294,4.416l.934-1.783L11.039,1.444l-1.783.934a3.042,3.042,0,0,0-.934-.34L7.642,0h-1.7L5.265,1.953a3.549,3.549,0,0,0-.849.34L2.632,1.359,1.359,2.632l.934,1.783a3.549,3.549,0,0,0-.34.849L0,5.944v1.7l1.953.679c.085.34.255.594.34.934l-.934,1.783,1.189,1.189,1.783-.934a3.042,3.042,0,0,0,.934.34l.679,1.953h1.7l.679-1.953c.34-.085.594-.255.934-.34l1.783.934,1.189-1.189-.934-1.783a3.042,3.042,0,0,0,.34-.934l1.953-.679v-1.7l-1.953-.679A3.549,3.549,0,0,0,11.294,4.416Zm-4.5,4.925A2.5,2.5,0,0,1,4.246,6.793,2.5,2.5,0,0,1,6.793,4.246,2.5,2.5,0,0,1,9.341,6.793,2.5,2.5,0,0,1,6.793,9.341Z"/></svg>