<svg xmlns="http://www.w3.org/2000/svg" width="14" height="14" viewBox="0 0 14 14"><defs><style>.a{fill:none;}.b{fill:#fff;fill-rule:evenodd;}</style></defs><rect class="a" width="14" height="14"/><path class="b" d="M1.7,4.246v7.642h10.19V4.246ZM11.039,1.7h1.7a.8.8,0,0,1,.849.849v10.19a.8.8,0,0,1-.849.849H.849A.8.8,0,0,1,0,12.737V2.547A.8.8,0,0,1,.849,1.7h1.7V.849A.8.8,0,0,1,3.4,0a.8.8,0,0,1,.849.849V1.7H9.341V.849a.849.849,0,1,1,1.7,0ZM10.19,10.19h-1.7v-1.7h1.7Zm-2.547,0h-1.7v-1.7h1.7ZM10.19,7.642h-1.7v-1.7h1.7Zm-2.547,0h-1.7v-1.7h1.7ZM5.095,10.19H3.4v-1.7h1.7Z"/></svg>