<svg xmlns="http://www.w3.org/2000/svg" width="13.586" height="13.586" viewBox="0 0 13.586 13.586"><defs><style>.a{fill:#fff;}</style></defs><path class="a" d="M6.793,0a6.793,6.793,0,1,0,6.793,6.793A6.813,6.813,0,0,0,6.793,0Zm0,8.492a1.7,1.7,0,1,1,1.7-1.7A1.7,1.7,0,0,1,6.793,8.492Zm0-6.793A4.954,4.954,0,0,1,9,2.208L7.68,3.529a3.05,3.05,0,0,0-1.774,0L4.585,2.208A4.954,4.954,0,0,1,6.793,1.7ZM1.7,6.793a4.954,4.954,0,0,1,.509-2.208L3.529,5.907a3.05,3.05,0,0,0,0,1.774L2.208,9A4.954,4.954,0,0,1,1.7,6.793Zm5.095,5.095a4.954,4.954,0,0,1-2.208-.509l1.321-1.321a3.05,3.05,0,0,0,1.774,0L9,11.379A4.954,4.954,0,0,1,6.793,11.888ZM11.379,9,10.057,7.68a3.05,3.05,0,0,0,0-1.774l1.321-1.32a5.038,5.038,0,0,1,0,4.416Z"/></svg>