<svg xmlns="http://www.w3.org/2000/svg" width="14" height="14" viewBox="0 0 14 14"><defs><style>.a{fill:#fff;}</style></defs><g transform="translate(0 0)"><path class="a" d="M11.375,14a.827.827,0,0,1-.876-.875V5.25a.827.827,0,0,1,.876-.875h1.75A.827.827,0,0,1,14,5.25v7.875a.827.827,0,0,1-.875.875Zm-5.25,0a.826.826,0,0,1-.875-.875V.875A.827.827,0,0,1,6.125,0h1.75A.827.827,0,0,1,8.75.875v12.25A.826.826,0,0,1,7.875,14ZM.875,14A.827.827,0,0,1,0,13.125v-3.5A.827.827,0,0,1,.875,8.75h1.75a.827.827,0,0,1,.876.876v3.5A.827.827,0,0,1,2.625,14Z" transform="translate(0 0)"/></g></svg>