<svg xmlns="http://www.w3.org/2000/svg" width="32.208" height="32.208" viewBox="0 0 32.208 32.208"><defs><style>.a{fill:#065464;fill-rule:evenodd;}</style></defs><g transform="translate(-933.827 -125.132)"><path class="a" d="M16.933,7.875A1.006,1.006,0,0,1,17.94,8.881v8.052a1.006,1.006,0,0,1-1.006,1.006H8.881a1.006,1.006,0,1,1,0-2.013h7.045V8.881A1.006,1.006,0,0,1,16.933,7.875Z" transform="translate(932.997 124.303)"/><path class="a" d="M16.875,17.881a1.006,1.006,0,0,1,1.006-1.006h8.052a1.006,1.006,0,1,1,0,2.013H18.888v7.045a1.006,1.006,0,1,1-2.013,0Z" transform="translate(932.049 123.354)"/><path class="a" d="M16.1,30.195A14.091,14.091,0,1,0,2.013,16.1,14.091,14.091,0,0,0,16.1,30.195Zm0,2.013A16.1,16.1,0,1,0,0,16.1,16.1,16.1,0,0,0,16.1,32.208Z" transform="translate(933.827 125.132)"/></g></svg>