<svg xmlns="http://www.w3.org/2000/svg" width="15.006" height="15.754" viewBox="0 0 15.006 15.754"><defs><style>.a{fill:#fff;fill-rule:evenodd;}</style></defs><path class="a" d="M558.877,776.739c-.139-.153-.1-.268-.117-.484.071.123.107.121.145.206C559.03,776.747,558.958,776.626,558.877,776.739Zm-.6-1.113c-.246-.008-.385-.069-.452.137a2.334,2.334,0,0,1-1.071,2.734,8.668,8.668,0,0,0,.871,1.389,13.454,13.454,0,0,0,.861,1.254,8.5,8.5,0,0,1,1.43-.524,11.439,11.439,0,0,0,1.157-.75c.542-.357,1.061-.516.663-1.448-.327-.762.3-.067-.5-.881.274-.369.307-.861-.351-.922-.177.119-.2.032-.008-.091a.452.452,0,0,0,.242-.75c-.286-.345-.595-.071-.841.059a.545.545,0,0,1-.1-.1c-.01-.014-.04-.058-.05-.075-.032-.05-.054-.1-.085-.161a4.072,4.072,0,0,1-.185-.363,11.967,11.967,0,0,1,3.412.1c1.123.1,2.287.2,3.42.28-.2-1.274-.466-2.468-.718-3.731-.129-.643-.246-1.234-.365-1.859a16.836,16.836,0,0,1-.339-1.871c-.085-.06-.016-.012-.159-.056l-5.239,2.611c-.795.391-3.45.5-3.64.948a34.841,34.841,0,0,0,.613,3.567c.163.722.9.238,1.458.254l.119.282Z" transform="translate(-555.104 -766.452)"/><path class="a" d="M5303.633,1.173c.351,1.881.68,3.551,1.031,5.358.163.833.314,1.775.51,2.7.232,1.1,1.662.807,1.448-.359-.325-1.772-.688-3.589-1.037-5.358-.175-.9-.322-1.793-.516-2.686C5304.829-.277,5303.4-.061,5303.633,1.173Z" transform="translate(-5292.914 -0.111)"/><path class="a" d="M3690.769,4793.207c-.022-.329.064-.792-.091-1.037a2.492,2.492,0,0,1-.26-.389,2.39,2.39,0,0,1,.329-2.466l.472-.4a2.253,2.253,0,0,1,2.593.109,2.225,2.225,0,0,1-1.379,3.952,3.754,3.754,0,0,1-.986-.2C3691.122,4792.734,3690.989,4793.051,3690.769,4793.207Zm.54.115c.944.095,1.137.365,2.158-.059a2.734,2.734,0,0,0,.524-4.684,2.658,2.658,0,0,0-3.559.3,2.586,2.586,0,0,0-.772,1.69,2.364,2.364,0,0,0,.579,1.8c.008.5-.117,1.359.113,1.684C3690.678,4794.1,3691.13,4793.58,3691.31,4793.321Z" transform="translate(-3682.215 -4778.375)"/><path class="a" d="M2.374,6028.384c-.345.321-.748.026-.456-.412l.345.022A.4.4,0,0,1,2.374,6028.384Zm.425-.01c.123-.316-.01-.4-.167-.625l-.98-1.484c-.246-.367-.5-.881-.742-.913a2.327,2.327,0,0,0-1,.568c-.179.323.317.879.478,1.119.222.333.44.664.663,1,.242.363.5.889.742.917C2.06,6028.983,2.739,6028.465,2.8,6028.374Z" transform="translate(0.129 -6013.2)"/><path class="a" d="M6633.148,1576.613a1.372,1.372,0,1,0-.468-2.7C6632.641,1574.345,6633.07,1576.018,6633.148,1576.613Z" transform="translate(-6619.303 -1570.725)"/><path class="a" d="M5470.924,5883.166c1.436-.192.02-1.486-.25-.6A.576.576,0,0,0,5470.924,5883.166Z" transform="translate(-5459.622 -5870.399)"/><path class="a" d="M4826.4,5887.69c.1-.925-.7-.736-.821-.381a.428.428,0,0,0,.236.565C4826.183,5887.986,4826.251,5887.791,4826.4,5887.69Z" transform="translate(-4815.824 -5875.146)"/><path class="a" d="M4188.213,5883.265a.436.436,0,1,0,.434.754C4189.042,5883.783,4188.746,5882.92,4188.213,5883.265Z" transform="translate(-4179.516 -5871.321)"/><path class="a" d="M4962.159,748.452c-.008-.069.026-.052-.048-.071-.107-.026-.037-.046-.111.014C4962.143,748.44,4962.074,748.391,4962.159,748.452Z" transform="translate(-4951.994 -746.847)"/></svg>