<svg xmlns="http://www.w3.org/2000/svg" width="26.219" height="27.526" viewBox="0 0 26.219 27.526"><defs><style>.a{fill:#34acbc;fill-rule:evenodd;}</style></defs><path class="a" d="M560.858,783.27c-.243-.268-.18-.469-.2-.846.123.215.187.211.254.359C561.126,783.284,561,783.072,560.858,783.27Zm-1.057-1.945c-.43-.014-.673-.12-.789.24.109,1.082.356,2.079-.211,3a4.53,4.53,0,0,1-1.66,1.779,15.154,15.154,0,0,0,1.522,2.427,23.54,23.54,0,0,0,1.5,2.191,14.861,14.861,0,0,1,2.5-.916,19.963,19.963,0,0,0,2.022-1.311c.948-.624,1.853-.9,1.159-2.53-.571-1.332.518-.116-.867-1.54.479-.645.536-1.5-.613-1.61-.31.208-.352.056-.014-.159a.789.789,0,0,0,.423-1.311c-.5-.6-1.039-.123-1.469.1a.951.951,0,0,1-.173-.18c-.018-.025-.07-.1-.088-.13-.056-.088-.1-.18-.148-.282a7.112,7.112,0,0,1-.324-.634c1.691-.405,4.133.014,5.961.183,1.962.183,4,.352,5.975.49-.342-2.227-.814-4.312-1.254-6.518-.225-1.124-.43-2.156-.638-3.248a29.4,29.4,0,0,1-.592-3.27c-.148-.106-.028-.021-.278-.1l-9.153,4.563c-1.388.683-6.028.874-6.359,1.656a60.857,60.857,0,0,0,1.071,6.233c.286,1.261,1.568.416,2.547.444l.208.493Z" transform="translate(-554.266 -765.295)"/><path class="a" d="M5303.652,1.967c.613,3.287,1.188,6.2,1.8,9.361.284,1.455.549,3.1.891,4.714.405,1.92,2.9,1.409,2.53-.627-.568-3.1-1.2-6.271-1.812-9.361-.3-1.564-.562-3.132-.9-4.693C5305.741-.566,5303.25-.189,5303.652,1.967Z" transform="translate(-5284.922 -0.111)"/><path class="a" d="M3691.6,4797.075c-.039-.574.113-1.385-.159-1.812a4.344,4.344,0,0,1-.454-.68,4.176,4.176,0,0,1,.574-4.31l.824-.693a3.937,3.937,0,0,1,4.531.19,3.887,3.887,0,0,1-2.41,6.905,6.534,6.534,0,0,1-1.723-.342C3692.218,4796.25,3691.985,4796.8,3691.6,4797.075Zm.944.2c1.649.166,1.987.639,3.77-.1a4.776,4.776,0,0,0,.917-8.184,4.645,4.645,0,0,0-6.219.521,4.517,4.517,0,0,0-1.35,2.952c-.07,1.051.314,2.717,1.011,3.153.014.867-.2,2.374.2,2.942C3691.443,4798.631,3692.232,4797.726,3692.545,4797.275Z" transform="translate(-3676.655 -4771.162)"/><path class="a" d="M4.244,6030.652c-.6.561-1.307.045-.8-.719l.6.039A.7.7,0,0,1,4.244,6030.652Zm.743-.018c.215-.553-.018-.7-.292-1.093l-1.712-2.593c-.43-.641-.867-1.539-1.3-1.6a4.066,4.066,0,0,0-1.748.993c-.314.563.553,1.536.835,1.955.388.582.768,1.159,1.159,1.741.423.634.874,1.554,1.3,1.6C3.695,6031.7,4.882,6030.792,4.988,6030.634Z" transform="translate(0.129 -6004.122)"/><path class="a" d="M6633.5,1578.641a2.4,2.4,0,1,0-.817-4.725C6632.612,1574.678,6633.362,1577.6,6633.5,1578.641Z" transform="translate(-6609.309 -1568.354)"/><path class="a" d="M5471.127,5883.842c2.508-.335.034-2.6-.438-1.04A1.008,1.008,0,0,0,5471.127,5883.842Z" transform="translate(-5451.378 -5861.536)"/><path class="a" d="M4827.04,5888.193c.172-1.616-1.226-1.286-1.435-.666a.747.747,0,0,0,.412.986C4826.651,5888.711,4826.772,5888.369,4827.04,5888.193Z" transform="translate(-4808.553 -5866.276)"/><path class="a" d="M4188.4,5883.325a.761.761,0,1,0,.758,1.317C4189.851,5884.23,4189.333,5882.723,4188.4,5883.325Z" transform="translate(-4173.206 -5862.458)"/><path class="a" d="M4962.279,748.523c-.014-.12.046-.092-.085-.123-.187-.046-.063-.081-.193.025C4962.25,748.5,4962.13,748.418,4962.279,748.523Z" transform="translate(-4944.518 -745.719)"/></svg>