<svg xmlns="http://www.w3.org/2000/svg" width="53.5" height="53.5" viewBox="0 0 53.5 53.5"><defs><style>.a{fill:#065464;}</style></defs><path class="a" d="M23.607,4.5a13.38,13.38,0,0,0-7.463,24.483A19.15,19.15,0,0,0,4.5,46.536H8.321A15.257,15.257,0,0,1,23.607,31.25,15.043,15.043,0,0,1,30.829,33.1a15.5,15.5,0,1,0,2.928-2.751,19.4,19.4,0,0,0-2.687-1.372A13.378,13.378,0,0,0,23.607,4.5Zm0,3.821a9.554,9.554,0,1,1-9.554,9.554A9.525,9.525,0,0,1,23.607,8.321ZM42.714,31.25A11.464,11.464,0,1,1,31.25,42.714,11.434,11.434,0,0,1,42.714,31.25ZM40.8,40.8H35.071v3.821H50.357V40.8H40.8Z" transform="translate(-4.5 -4.5)"/></svg>