<svg xmlns="http://www.w3.org/2000/svg" width="48.088" height="53.431" viewBox="0 0 48.088 53.431"><defs><style>.a{fill:#065464;}</style></defs><g transform="translate(-4.5 -3)"><path class="a" d="M20.015,40.4h5.343V16.358h8.015L22.686,3,12,16.358h8.015Z" transform="translate(5.858 0)"/><path class="a" d="M9.843,48.23h37.4a5.347,5.347,0,0,0,5.343-5.343V18.843A5.347,5.347,0,0,0,47.245,13.5H36.559v5.343H47.245V42.887H9.843V18.843H20.529V13.5H9.843A5.347,5.347,0,0,0,4.5,18.843V42.887A5.347,5.347,0,0,0,9.843,48.23Z" transform="translate(0 8.201)"/></g></svg>