<svg xmlns="http://www.w3.org/2000/svg" width="56.189" height="53.38" viewBox="0 0 56.189 53.38"><defs><style>.a{fill:#065464;}</style></defs><path class="a" d="M53.57,19.857H37.8L40.958,10.4A5.623,5.623,0,0,0,35.624,3H31.095a2.813,2.813,0,0,0-2.16,1.011L15.729,19.857H8.619A5.623,5.623,0,0,0,3,25.476V50.761A5.623,5.623,0,0,0,8.619,56.38H46a5.647,5.647,0,0,0,5.261-3.647L59.011,32.08a2.809,2.809,0,0,0,.178-.985V25.476A5.623,5.623,0,0,0,53.57,19.857ZM8.619,25.476h5.619V50.761H8.619ZM53.57,30.585,46,50.761H19.857V23.683L32.41,8.619h3.22L31.241,21.775a2.8,2.8,0,0,0,2.663,3.7H53.57Z" transform="translate(-3 -3)"/></svg>