<svg xmlns="http://www.w3.org/2000/svg" width="69.225" height="60.271" viewBox="0 0 69.225 60.271"><g transform="translate(0 0)">
<g transform="translate(0 0)">
<path class="a" fill="#065464" d="M67.834,25.184c-.015-.01-.027-.022-.042-.031s-.009-.008-.014-.011L58.23,18.6V9.742a5.014,5.014,0,0,0-5.009-5.008H19.006A5.014,5.014,0,0,0,14,9.742V18.59L4.506,25.1A6.858,6.858,0,0,0,1.5,30.794V58.082A6.938,6.938,0,0,0,8.422,65H63.8a6.937,6.937,0,0,0,6.922-6.922V30.794A6.793,6.793,0,0,0,67.834,25.184ZM48.219,41.959,66.986,28.13a4.068,4.068,0,0,1,.969,2.664V58.082a4.1,4.1,0,0,1-.481,1.9ZM64.69,26.382,58.23,31.134v-9.18ZM19.006,7.5H53.222a2.242,2.242,0,0,1,2.24,2.239V33.181L38.587,45.611a4.257,4.257,0,0,1-4.935,0L16.766,33.191V9.742A2.242,2.242,0,0,1,19.006,7.5ZM4.75,59.981a4.1,4.1,0,0,1-.481-1.9V30.794a4.069,4.069,0,0,1,.969-2.664L24,41.961ZM14,21.949v9.19L7.535,26.382ZM8.422,62.235a4.122,4.122,0,0,1-1.656-.349L26.273,43.629l5.74,4.222a6.98,6.98,0,0,0,8.216-.007l5.723-4.215L65.458,61.886a4.123,4.123,0,0,1-1.656.349Z" transform="translate(-1.5 -4.734)"/><path fill="#065464" class="a" d="M27.757,31.316A10.148,10.148,0,0,0,32.713,30.2l-.446-1.2a8.685,8.685,0,0,1-4.2.975c-4.121,0-7.156-2.868-7.156-7.518,0-5.652,3.814-9.244,8.353-9.244,4.316,0,6.738,2.9,6.738,6.933,0,3.23-1.587,5.124-3.007,5.1-.919-.028-1.253-1-.835-3.118l.946-5.04a7.333,7.333,0,0,0-2.979-.585,6.575,6.575,0,0,0-6.6,6.6c0,2.2,1.393,3.509,3.008,3.509a4.374,4.374,0,0,0,3.926-2.451h.112a2.06,2.06,0,0,0,2.061,2.451c2.617,0,4.956-2.451,4.956-6.627a7.733,7.733,0,0,0-8.1-8.047c-6.182,0-10.163,4.956-10.163,10.692A8.287,8.287,0,0,0,27.757,31.316Zm2.84-10c-.306,1.727-1.782,3.787-3.4,3.787-1.225,0-1.837-.891-1.837-2.117,0-2.7,1.977-5.011,4.427-5.011a4.8,4.8,0,0,1,1.392.195Z" transform="translate(5.352 -1.964)"/></g></g></svg>