<svg xmlns="http://www.w3.org/2000/svg" width="57.174" height="38.102" viewBox="0 0 57.174 38.102"><defs><style>.a,.b{fill:none;stroke:#065464;stroke-width:4px;}.a{stroke-linecap:round;stroke-linejoin:round;}.b{stroke-miterlimit:10;}</style></defs><g transform="translate(-0.185 -5.875)"><path class="a" d="M28.733,7.875c-9.228,0-18.7,5.342-26.148,16.024A1.9,1.9,0,0,0,2.553,26c5.726,8.966,15.067,15.975,26.18,15.975,10.993,0,20.525-7.031,26.262-16.015a1.911,1.911,0,0,0,0-2.068C49.244,15.012,39.644,7.875,28.733,7.875Z" transform="translate(0 0)"/><path class="b" d="M31.32,21.848a9.473,9.473,0,1,1-9.473-9.473A9.473,9.473,0,0,1,31.32,21.848Z" transform="translate(6.926 3.078)"/></g></svg>