<svg xmlns="http://www.w3.org/2000/svg" width="77.551" height="61.086" viewBox="0 0 77.551 61.086"><g transform="translate(0 0)"><g transform="translate(0 0)">
<path class="a" fill="currentColor" d="M51.61,26.819a1.068,1.068,0,0,1-.132-.384.771.771,0,0,0-.406-.675,1.744,1.744,0,0,0-.316-.175c-.022,0-.362-.124-.75-.278s-.78-.294-.868-.313a.964.964,0,0,1-.377-.32,1.175,1.175,0,0,0-.333-.322c-.326-.111-.4-.61-.175-1.112a1.471,1.471,0,0,0,.126-.391.862.862,0,0,1,.185-.346c.269-.341.43-1.078.258-1.182a2.033,2.033,0,0,1-.063-.683,1.891,1.891,0,0,0-.111-.859,1.218,1.218,0,0,0-.89-.631,1.009,1.009,0,0,1-.474-.188c-.112-.1-.221-.134-.488-.133a2.255,2.255,0,0,0-1.785.962,2.912,2.912,0,0,0-.337,1.8c.008.5.029.607.151.772a.785.785,0,0,1,.142.254.376.376,0,0,0,.12.177.825.825,0,0,1,.165.4,1.33,1.33,0,0,0,.134.412.72.72,0,0,1,.087.353c0,.2-.025.243-.2.3a1.391,1.391,0,0,0-.427.315c-.265.289-.8.488-2.028.738a3.322,3.322,0,0,0-.8.232,3.426,3.426,0,0,0-.338,1.08,2.565,2.565,0,0,1-.1.419,16.391,16.391,0,0,0-.349,1.805V29H52l-.034-.268A7.352,7.352,0,0,0,51.61,26.819Z" transform="translate(-10.013 -15.145)"/><path fill="currentColor" class="a" d="M38.555,69.743a1.767,1.767,0,0,1-.2-.6,1.215,1.215,0,0,0-.635-1.056,2.668,2.668,0,0,0-.494-.272c-.036,0-.566-.2-1.174-.435s-1.219-.46-1.355-.492a1.514,1.514,0,0,1-.593-.5,1.878,1.878,0,0,0-.52-.5c-.509-.174-.632-.955-.274-1.741a2.333,2.333,0,0,0,.2-.61,1.325,1.325,0,0,1,.29-.546c.421-.531.673-1.682.4-1.847a3.252,3.252,0,0,1-.1-1.069,2.953,2.953,0,0,0-.174-1.346,1.915,1.915,0,0,0-1.393-.986,1.6,1.6,0,0,1-.743-.293.944.944,0,0,0-.762-.209,3.522,3.522,0,0,0-2.794,1.506,4.555,4.555,0,0,0-.526,2.807c.012.776.047.951.235,1.21a1.214,1.214,0,0,1,.222.4.593.593,0,0,0,.188.277,1.33,1.33,0,0,1,.259.621,1.98,1.98,0,0,0,.209.641,1.143,1.143,0,0,1,.136.557c0,.32-.04.378-.306.473a2.122,2.122,0,0,0-.668.5c-.416.45-1.26.76-3.176,1.156a5.15,5.15,0,0,0-1.245.36,5.436,5.436,0,0,0-.528,1.687,3.81,3.81,0,0,1-.156.657,25.935,25.935,0,0,0-.546,2.822v.247H39.163l-.054-.42A11.32,11.32,0,0,0,38.555,69.743Z" transform="translate(-7.397 -20.458)"/><path class="a" d="M27.006,46.643a1.416,1.416,0,0,0-.186-2.825A20.189,20.189,0,0,0,10.9,53.778a1.418,1.418,0,0,0,1.983,1.906,1.4,1.4,0,0,0,.481-.5A17.274,17.274,0,0,1,27.006,46.643Z" transform="translate(-5.79 -18.602)"/><path fill="currentColor" class="a" d="M25.858,40.084a1.416,1.416,0,0,0-.181-2.826A25.956,25.956,0,0,0,5.185,50.063a1.416,1.416,0,0,0,1.978,1.9,1.389,1.389,0,0,0,.483-.5A23.039,23.039,0,0,1,25.858,40.084Z" transform="translate(-5 -17.694)"/><path fill="currentColor" class="a" d="M84.067,43.417a1.761,1.761,0,0,1-.2-.6,1.214,1.214,0,0,0-.634-1.057,2.746,2.746,0,0,0-.5-.273c-.036,0-.564-.195-1.174-.433s-1.218-.46-1.355-.493a1.483,1.483,0,0,1-.592-.5,1.9,1.9,0,0,0-.52-.5c-.511-.172-.631-.955-.274-1.741a2.313,2.313,0,0,0,.2-.61,1.327,1.327,0,0,1,.29-.545c.42-.532.674-1.683.4-1.847a3.278,3.278,0,0,1-.1-1.071,2.954,2.954,0,0,0-.175-1.346,1.914,1.914,0,0,0-1.393-.987,1.584,1.584,0,0,1-.742-.292.942.942,0,0,0-.762-.21,3.533,3.533,0,0,0-2.794,1.507,4.563,4.563,0,0,0-.526,2.807c.011.776.047.952.236,1.21a1.233,1.233,0,0,1,.221.4.6.6,0,0,0,.188.276,1.312,1.312,0,0,1,.259.623,1.975,1.975,0,0,0,.209.64,1.155,1.155,0,0,1,.137.557c0,.32-.041.378-.306.473a2.124,2.124,0,0,0-.669.5c-.417.45-1.261.76-3.176,1.158a5.125,5.125,0,0,0-1.245.358,5.364,5.364,0,0,0-.528,1.689,3.657,3.657,0,0,1-.157.657,25.948,25.948,0,0,0-.545,2.822v.247H84.678l-.053-.42A11.4,11.4,0,0,0,84.067,43.417Z" transform="translate(-13.693 -16.816)"/><path fill="currentColor" class="a" d="M68.841,22.885A15.043,15.043,0,0,0,55.547,30.92l-4.056-2.478A9.538,9.538,0,1,0,50.9,29.48L55.025,32a14.975,14.975,0,0,0,.526,12.932L43.44,54.681a15.645,15.645,0,1,0,.794,2.43L56.852,46.956A15.026,15.026,0,1,0,68.841,22.885ZM42.9,32.243a8.082,8.082,0,1,1,8.083-8.082A8.091,8.091,0,0,1,42.9,32.243ZM29.625,73.25A12.645,12.645,0,1,1,42.272,60.605,12.659,12.659,0,0,1,29.625,73.25ZM68.841,50.568A12.646,12.646,0,1,1,81.488,37.921,12.659,12.659,0,0,1,68.841,50.568Z" transform="translate(-6.326 -14.554)"/></g></g></svg>