<svg xmlns="http://www.w3.org/2000/svg" width="49.707" height="49.707" viewBox="0 0 49.707 49.707"><defs><style>.a{fill:#065464;}</style></defs><path class="a" d="M44.205,36.9a2.82,2.82,0,0,0-.853-2.071L37.017,28.49a2.82,2.82,0,0,0-2.071-.853,2.9,2.9,0,0,0-2.193.974q.092.092.579.563t.655.655q.168.183.458.579a2.419,2.419,0,0,1,.4.777,3.171,3.171,0,0,1,.107.838,2.913,2.913,0,0,1-2.924,2.924,3.086,3.086,0,0,1-.838-.107,2.478,2.478,0,0,1-.777-.4,6.664,6.664,0,0,1-.579-.458q-.182-.169-.655-.655l-.563-.579a2.956,2.956,0,0,0-1.005,2.223,2.82,2.82,0,0,0,.853,2.071l6.275,6.3a2.808,2.808,0,0,0,2.071.822,2.932,2.932,0,0,0,2.071-.793l4.477-4.447a2.785,2.785,0,0,0,.853-2.041ZM22.794,15.422a2.82,2.82,0,0,0-.853-2.071l-6.275-6.3a2.82,2.82,0,0,0-2.071-.853,2.94,2.94,0,0,0-2.071.822L7.047,11.464A2.785,2.785,0,0,0,6.194,13.5a2.82,2.82,0,0,0,.853,2.071l6.335,6.335a2.808,2.808,0,0,0,2.071.822,2.943,2.943,0,0,0,2.193-.945q-.092-.092-.579-.563t-.656-.655a6.976,6.976,0,0,1-.458-.579,2.458,2.458,0,0,1-.4-.777,3.06,3.06,0,0,1-.106-.838,2.913,2.913,0,0,1,2.924-2.924,3.085,3.085,0,0,1,.838.107,2.478,2.478,0,0,1,.777.4,6.665,6.665,0,0,1,.579.458q.182.169.655.655l.563.579a2.956,2.956,0,0,0,1.005-2.223Zm27.26,21.472a8.311,8.311,0,0,1-2.589,6.183l-4.477,4.447a8.786,8.786,0,0,1-12.4-.061l-6.275-6.3a8.41,8.41,0,0,1-2.528-6.183,8.569,8.569,0,0,1,2.68-6.366l-2.68-2.68a8.533,8.533,0,0,1-6.335,2.68,8.458,8.458,0,0,1-6.213-2.558L2.9,19.718A8.458,8.458,0,0,1,.346,13.5,8.311,8.311,0,0,1,2.935,7.322L7.412,2.874A8.41,8.41,0,0,1,13.595.346a8.342,8.342,0,0,1,6.213,2.589l6.275,6.3a8.41,8.41,0,0,1,2.528,6.183,8.569,8.569,0,0,1-2.68,6.366l2.68,2.68a8.825,8.825,0,0,1,12.548-.122l6.335,6.335a8.458,8.458,0,0,1,2.558,6.213Z" transform="translate(-0.346 -0.346)"/></svg>