<svg xmlns="http://www.w3.org/2000/svg" width="58.391" height="54.22" viewBox="0 0 58.391 54.22"><defs><style>.a{fill:#065464;}</style></defs><g transform="translate(-2.25 -4.5)"><path class="a" d="M38.689,20.25,35.74,23.2l5.383,5.392H24.092a8.342,8.342,0,0,0,0,16.683h4.171V41.1H24.092a4.171,4.171,0,0,1,0-8.342H41.123l-5.387,5.394L38.689,41.1,49.116,30.677Z" transform="translate(11.525 13.445)"/><path class="a" d="M18.933,42.037H6.421L6.415,10.56,30.259,27.067a2.085,2.085,0,0,0,2.373,0l23.838-16.5V29.525h4.171V8.671A4.174,4.174,0,0,0,56.47,4.5H6.421A4.171,4.171,0,0,0,2.25,8.665V42.037a4.176,4.176,0,0,0,4.171,4.171H18.933ZM51.88,8.671,31.445,22.818,11.01,8.671Z"/></g></svg>