<svg xmlns="http://www.w3.org/2000/svg" width="53.5" height="53.5" viewBox="0 0 53.5 53.5"><defs><style>.a{fill:#065464;}</style></defs><path class="a" d="M27.154,44.992a2.971,2.971,0,1,0,2.971-2.971A2.98,2.98,0,0,0,27.154,44.992Zm0-41.617V15.258H33.1v-5.7A20.794,20.794,0,1,1,9.317,30.125a20.585,20.585,0,0,1,4.694-13.144L30.125,33.1,34.318,28.9,14.1,8.7v.064A26.692,26.692,0,1,0,30.125,3.375Zm20.808,26.75A2.971,2.971,0,1,0,44.992,33.1,2.98,2.98,0,0,0,47.963,30.125Zm-35.675,0a2.971,2.971,0,1,0,2.971-2.971A2.98,2.98,0,0,0,12.287,30.125Z" transform="translate(-3.375 -3.375)"/></svg>