<svg xmlns="http://www.w3.org/2000/svg" width="50.728" height="47.473" viewBox="0 0 50.728 47.473"><defs><style>.a,.b{fill:#065464;}.a{fill-rule:evenodd;}</style></defs><g transform="translate(0 -2.25)"><path class="a" d="M7.755,5.5V20.432L30.538,43.215,45.465,28.288,22.682,5.5ZM4.5,5.5A3.255,3.255,0,0,1,7.755,2.25H22.682a3.255,3.255,0,0,1,2.3.953L47.766,25.986a3.255,3.255,0,0,1,0,4.6L32.839,45.515a3.255,3.255,0,0,1-4.6,0L5.455,22.732a3.255,3.255,0,0,1-.955-2.3Z" transform="translate(2.009 0)"/><path class="a" d="M13.882,13.259a1.627,1.627,0,1,0-1.627-1.627A1.627,1.627,0,0,0,13.882,13.259Zm0,3.255A4.882,4.882,0,1,0,9,11.632,4.882,4.882,0,0,0,13.882,16.514Z" transform="translate(4.019 2.009)"/><path class="b" d="M3.255,21.054a3.255,3.255,0,0,0,.953,2.3l24.271,24.27-.14.14a3.255,3.255,0,0,1-4.6,0L.955,24.983A3.255,3.255,0,0,1,0,22.682V7.755A3.255,3.255,0,0,1,3.255,4.5Z" transform="translate(0 1.005)"/></g></svg>